<svg xmlns="http://www.w3.org/2000/svg" xmlns:xlink="http://www.w3.org/1999/xlink" version="1.1" id="Layer_8" x="0px" y="0px" viewBox="0 0 1000 955.1" style="enable-background:new 0 0 1000 955.1;" xml:space="preserve">
<path d="M328.2,765.7c-50.2-25.4-94.7-62.5-128.7-107.3c-23.8-31.4-42.4-66.3-55.1-103.5c-13.1-38.4-19.7-78.8-19.7-119.9  c0-45.9,8-90.5,23.8-132.6c7.7-20.5,17.1-40.2,28.2-58.7c-5.3-8.8-10.7-18.3-15.6-27.8C120,278.8,96.8,354.3,96.8,435  c0,90.2,29.7,173.5,80.4,240.4c40.9,53.8,95.2,97,158,124.6c11.3-8.4,19.7-14.9,25.5-19.7C349.7,776,338.8,771.1,328.2,765.7z   M835.8,221.8c-5,11.2-10.8,22.4-15.2,29.2c31.2,55.3,47.9,118.8,47.9,184c0,73.2-20.9,143.7-60.5,203.8  c-33.1,50.3-78.7,92.3-131.6,121.3c-11.5,6.3-23.3,12-35.3,17c5.5,6.7,14.6,14,23.8,20.1c0,0,0,0,0,0c68-31.3,125.7-81.1,166.5-143  c41.4-62.8,65.1-138.5,65.1-219.2C896.5,357.1,874.4,283.5,835.8,221.8z M496.9,36.8c-99.9,0-192.2,36-262.6,96.1  c3.2,8.6,7.8,17.7,12.3,26.3c67.8-60.5,156.8-94.5,250.3-94.5c95.3,0,185.1,34.9,253,97.2c6.2-9.9,11.3-17.7,15.4-23.8  C694.3,74.6,600,36.8,496.9,36.8z M361.1,756.8c-41.3-17.6-78.3-42.9-110.1-75.1c-31.8-32.2-56.8-69.6-74.3-111.3  c-18.1-43.2-27.2-89.1-27.2-136.4c0-47.3,9.2-93.2,27.2-136.4c4.1-9.8,8.7-19.5,13.6-28.8c-1.7-1.9-3.2-3.6-4.5-5  c-27.2,50.6-42.7,108.6-42.7,170.2c0,152.4,94.6,282.5,227.6,333.5c0.9-1.8,1.7-3.8,2.5-5.8C369.2,760.1,365.1,758.5,361.1,756.8z   M810.6,272.4c-1.3,1.8-2.7,3.7-4.2,5.8c3.1,6.4,6.1,12.8,8.8,19.4c18.1,43.2,27.2,89.1,27.2,136.4c0,47.3-9.2,93.2-27.2,136.4  c-17.5,41.7-42.5,79.2-74.3,111.3c-30.4,30.7-65.5,55.1-104.6,72.6c1.1,2,2.1,3.8,3.1,5.5C762.8,704.2,848.8,579.2,848.8,434  C848.8,375.8,835,320.9,810.6,272.4z M496,77.3c-93.4,0-178.3,36.7-241.4,96.5c1.1,2,2.3,3.8,3.4,5.5  c30.2-28.9,64.9-51.8,103.2-68.2c42.7-18.3,88.1-27.5,134.9-27.5c46.8,0,92.2,9.3,134.9,27.5c39.7,17,75.4,40.9,106.4,71.3  c1.4-1.8,2.8-3.5,3.9-5C677.7,115.5,591.2,77.3,496,77.3z M552.5,761c0-21.4,1.2-117.6,1.2-117.6s-3.9-15.7-15.7-15.7h-77.5  c-15,0-18.2,14.2-18.2,21.4c0,0-0.3,7.3,1.5,13.9c1.2,4.4,4.2,10.2,6.2,11.8c0,0,0.4,75,0.4,80.2c0,5.2,0.5,12-6,11.6  c-7.3-0.4-8.1,2.3-8.1,6.4c0,4.1,0,1.7,0,17s15.1,17.4,21.5,17.4c0.9,0,5.4,0,11.8-0.1c0,0,0,0,0,0h0.1c1.9,0,6.4,0.9,6.4,4.6v14.6  c-0.1,0.1-0.1,0.2-0.2,0.2c-2.9,4-4.9,12-4.9,14.8c0,9.3,3.8,12.8,8.1,17.1c6.7,6.6,12.6,7.5,17.7,7.5c3.5,0,10.9-1,16.8-6  c4.6-3.8,8.7-10.3,8.8-13.5c0.2-3.1,0.8-14.5-2.4-19c-0.4-0.6-0.8-1.1-1.2-1.6c-0.1-0.1-0.2-0.2-0.3-0.3c-0.3-0.3-0.5-0.6-0.8-0.9  V809c0-0.8,0.5-1.9,1.2-2.1c0.1,0,0.1,0,0.2,0c8.9,0,16.8-0.1,22.2-0.1c7.2,0,12.2-0.5,15.2-2.6c5.7-4,7.2-7.8,7.2-11.2v-21.8  C563.9,764.3,554.8,761,552.5,761z M515.9,841.8c0,0.8-0.2,4-0.3,4.7c-0.5,1.8,0,3.1-6,8.4c-4.1,3.6-10.5,4.6-12.2,4.6  c-5,0-8.8-1.4-14.2-6.2c-2.6-2.3-5-7.3-5-12.9c0-5.3,1.7-8.1,5.4-11c1.6-1.2,2.5-1.3,5.3-2.3c2.3-0.8,3.8-0.6,5.4-0.9c0,0,0,0,0,0  h3.6c0.3,0,0.5,0,0.8,0c7,0.1,9.4,1.6,12.8,3.5c1.5,0.8,2.6,2.8,3.3,3.8C516.3,835.4,516,839.6,515.9,841.8z M699,829.6  c-2,0.5-4.3,0.5-5.9,0.9c0,0,0,0,0,0c-14,3.5-27.4,8.6-36.4,13.5c-15.6,8.5-30.6,18.5-46.5,32.2c-8.4,7.2-15.7,16.6-21.4,24.3  c-5.4,7.3-10.3,14.1-11.8,16c-1,1.2-2.9,1.4-4.2,1.2c-1.2-0.3-1.8-0.9-2.4-1.7c-2.8-3.8-8.2-9.2-11.5-11.2c-4.4-2.6-4.9-3.8-5.2-6.6  c-0.2-2.8-1.2-72.3-1.2-75.3c0-3,1.2-4.5,3.2-4.5c1.6,0,5.2-1.9,9.6-5.2c4.4-3.3,5.9-6.5,7.2-9.1s2-4.9,2-9s0.6-25.7,0.6-25.7h7.7  c1.1,11.2,3.2,22.4,5.4,28.3c2.5,6.7,4.1,11.2,3.9,19.6c-0.1,4.1-3.5,10.8-6.6,14.6c-2.6,3.3-5.2,6-7,7.9c-4.3,4.4-6.7,6.3-10,10.6  c-3.7,4.8-5.5,12.6-5.6,20.3c-0.2,8.4,0.5,14.8,1.5,19c1.1,4.9,4.5,12.4,6.1,14.9c1.8,2.7,2.1,4.2,3.1,4.2c1.2,0,2.5-0.2,5-3.7  c5-6.9,12.2-16,12.2-16c-7.6,0-11.2-2.6-13.8-5.5c-3.5-3.9-4.4-8.8-4.4-12.4c0-8,4.5-14,11.3-21.3c6.8-7.4,10.5-14.3,11.9-21  c1.1-5,1.9-9.5,2-13.5c0.3-8.2-0.8-12.4-2.4-17.3c-3-9.3-4.7-20.1-4.7-27c0-0.6,0-1.2,0-1.8h5.9c0.5,11.3,2.6,20.4,8.3,29.1  c5.3,8.1,10.7,18.9,10.7,29.7c0,5-3.4,12.3-12.4,21.7c-4.8,5-12.4,8.3-17.1,13.3c-4.1,4.3-4.8,11.1-1.8,14.4  c2.8,3.1,7.8,2.7,11.9,1.4c3.2-1,9.9-6.4,12.9-9.6c2.7-2.9,5.7-6.9,8.1-15.8c1.5-5.7,3.5-12.1,3.5-25c0-8.9-3.8-17.1-8-24.9  c-2.4-4.5-4.7-7.6-7.7-13.2c-3.3-6.2-4.1-14.6-4.2-21h7.6c0.4,10.5,2.5,16.6,8.2,22.9c6.8,7.4,11.5,12.9,14,15.1  c2.5,2.2,4.6,8.2,4.7,14c0.2,7-1.7,6.7-3.3,9.8c-1.6,3-1.5,3-2.7,9.8c4.8-6.5,8.9-8.3,16.2-11.3c3.1-1.3,7.3-4.1,12.1-4.6  c4.8-0.5,10.1,0.1,21.5,0.6c-13-7.4-20-9.2-30.3-13.5c-9.1-3.8-27.3-17.7-32.2-24.6c-2.3-3.2-4-6-5.1-9.8c-0.7-2.4-1.1-5.1-1.4-8.4  h6.1c0,0-0.1,3,0.4,7.3c0.5,5.1,15.1,20.1,27.3,27c12.2,7,32.5,15,39.5,17.2c0.1,0,0.2,0.1,0.3,0.1c4.9,1.5,10.2,2.7,13.4,3.3  C700.4,824.8,704.6,828.2,699,829.6z M447.6,822c0,3-1.1,72.9-1.4,75.7c-0.2,2.8-2.5,5.3-5.5,7.8c-3.3,2.6-10.3,9.3-11.7,11.4  c-1.1,1.8-3.7,1.9-5.5-0.3c-3.2-3.8-18-26.2-34-40.7c-15.6-14-30-23.4-48.1-33.5c-10.6-5.9-20.6-7.9-35-11.2c0,0,0,0,0,0  c-1.6-0.4-2.3-0.8-3.8-1.2c-6.6-2.1-3.3-5.2-0.2-5.8c3.2-0.6,8.1-1.7,13-3.2c0.1,0,0.2-0.1,0.3-0.1c7-2.2,25.8-10.8,39.4-17.2  c12.7-6,25.1-19,28.3-26.4c1.6-3.8,1.8-8.3,1.8-8.3l4.3,0c0,2.6-0.2,4.7-0.7,6.6c-1.3,4.8-4,7.6-7,11.5  c-10.4,13.5-22.7,21.1-32.8,25.7c-12.3,5.6-22.3,7.1-28.6,12.5c11.2-1.3,21.9-1,29.4,1.5c7.3,2.3,11.9,8.7,21.1,11.7  c-0.9-2.4-1.3-4.5-3.2-7.3c-2.1-3.2-2.8-5.3-2.6-12.3c0.2-5.8,1.3-7.9,3.8-10.6c2.2-2.5,7-7.6,13.4-15.4c4.5-5.5,7.9-9.1,9-17.3  c0.2-1.2,0.3-3.6,0.3-6.4l6.8-0.1c-0.2,6.6-1,15.3-3.7,21.8c-3.2,7.4-5.2,10.3-8,14.5c-4.9,7.4-7.4,15.1-7.4,24  c0,11.2,1.9,17,3.8,22.5c2.3,7.1,4.2,13.2,8.6,18c4.9,5.4,16.2,14.1,23.8,6.8c10.1-9.6-9.2-19.9-19.2-28.6c-4.9-4.3-5.9-7-8.2-10.1  c-2.6-3.6-2.6-9.7-2.6-13.9c0-10.8,4.1-15.8,9.5-23.9c6.3-9.4,7.6-17.4,7.8-31.1l6.5,0c0.1,1.8,0.2,3.7,0.2,5.4  c0,7-2.1,14.2-4.6,23.5c-1.7,6.2-2.8,14-2.8,21.9c0,2.8,1.4,5,2.5,8c0.7,1.8,1.2,3.9,1.9,6.2c1.7,5.1,8.5,14.9,10.6,16.4  c6.1,4.2,10.7,12.1,10.7,21.7c0,3.6-0.8,7.8-4.3,11.5c-2.6,2.8-6.3,5.2-13,5.3c0,0,2.6,6.1,11.4,16.6c2.8,3.3,3.4,4.6,5,4.4  c1.1-0.2,1.5-2.3,3.2-4.8c1.9-2.8,3.8-4.9,5.3-11.5c1.7-7.6,2.7-21.5,1.8-31.3c-0.3-3.8-3-10-6.3-13.5c-8.3-9.2-11.9-12.3-15.2-16  c-2-2.2-5-5.3-6.4-8.8c-1-2.4-0.9-5.5-0.9-8.7c0-8.4,1.3-13.6,4-19.3c1.8-3.8,2.4-7.3,2.9-12.3c0.5-4.4,0.5-9.5,0.4-14.7l9.6-0.1  c0,0,0.2,23,0.2,27.2s0.7,6,2,8.6c1.3,2.6,3,4.1,7,7.9c3.6,3.4,4.1,4.7,9.9,4.7C445.9,817.3,447.6,819,447.6,822z M587,577  c0.1,0.1,0.3,0.1,0.4,0.2C587.2,577.1,587.1,577,587,577z M586.1,576.8c0.3,0.1,0.6,0.1,0.8,0.2  C586.7,576.9,586.4,576.9,586.1,576.8z M565.6,611.1c0.5-0.2,1-0.5,1.4-0.7C566.5,610.6,566,610.8,565.6,611.1z M656,572.4  c-4.3-5.2-11.3-8.3-18.4-8.3c-5,0-8,1.6-10.5,4.2c-3.6,3.7-5.5,9.5-3.3,16.4c-6.4,0.1-12.6,1.2-17.8,4.7c-5.7,3.8-9.9,10.2-9.8,15.5  c0,6.2,3.1,11.4,5.3,14.6c2.8,4.1,5.4,6.5,6.8,6.8c3.2,0.8,4.1,4.1,1.6,6.5c-1.7,1.7-3.3,2.1-4.5,6c-0.3,1.2-0.3,3.1,0,5.5h3.2  c1.9-3.7,4.3-7.3,6.2-10.6c5.8-9.8,14.6-18.7,26.3-25.3c5.4-3.1,10.3-6.3,14.3-9c2.6-2.6,5.7-7.3,5.7-14.3  C661,580.2,658.8,575.9,656,572.4z M618.6,620.3c-2.5,2.7-4.9,4.2-7.4,1c-3.3-4.4-5.6-8.8-5.6-14.5c0-5.6,5-13.2,13.3-13.2  c8.9,0,9,5.4,9,8.7C627.8,608.3,623.3,615.2,618.6,620.3z M630.4,559.7c0.4,0,0.8-0.1,1.2-0.3C631.2,559.5,630.8,559.6,630.4,559.7z   M958.9,42c0,0-52.4-3.7-118.8-3.8h0c-1.7,0-4,2.9-5.5,5.5c-0.1,0.1-0.1,0.2-0.2,0.3c-8.6,14.4-31.7,53.3-50.5,87  c-24,43.1-84.5,146.1-117.2,201.9c-32.7,55.8-121.2,207.1-121.2,207.1l-2.6,65.8c0,0,22.6,20.3,29.1,38.6h9.9  c0.5-6.7-1.9-9.8-4-14.6c-2.1-4.6-6.6-9.9-11.3-14.2c-0.1-0.1-0.1-0.1-0.2-0.2c-1.8-1.7-2.1-3-2.1-3.3c0-0.3,0.4-0.7,1.4-1.2  c0,0,0,0,0.1,0c0.4-0.2,0.9-0.5,1.4-0.7c0,0,0.1,0,0.1-0.1c2.2-1.3,3.3-2,3.3-5.1c0-1,0.1-18.8,0.2-24.8c-9.9-6.8-15-25.9-15-33.7  c0-5.6,0.6-11.4,2.3-16.5c2.8-8.4,8.5-16.9,14.1-26.8c3.9-7,13.9-23,26.1-43.6c31.1-52.9,77-131.6,77-131.6c1.1,9.3,0.3,19.3-2,32.8  c-1.9,11-13.4,32.4-18.9,42.8c-18.6,35.4-34.5,52.5-43.3,61.1c-9.6,9.4-19,18.3-26,27.5c-3.9,5.1-11,16.4-15.2,27.3  c-3.3,8.5-4.4,15.8-4.4,24.1c0,8,2.8,16.1,7.1,22.8c2.4,3.8,6.1,8.6,13.9,10.3c0.3,0,0.6,0.1,0.8,0.2c0.2,0,0.3,0.1,0.4,0.2  c0.5,0.2,0.9,0.4,1.1,0.6c0.2,0.2,0.3,0.3,0.3,0.5c0,0,0,0,0,0c0,0.3-0.4,1.4-0.6,1.8c-0.2,0.3-0.3,1-0.7,1.3  c-3.3,1.9-5.1,5.1-6.4,8.4c-1.7,4.4-2.5,9-2.4,12.1c0.2,7.7,3.7,17.3,7,22.4c2.5,3.8,4.8,8.3,6,12.8c0.7,2.6,1.5,5.4,2,7.4h5.9  l0.5-11c0,0-3.4-5.4-7.3-13c-2.2-4.4-4.9-11.6-4.5-16.1c0.5-6.8,5.2-12.8,9-16.4c5.9-5.5,12.5-7.2,18.3-7.2c0-1.4,0-2.7,0-3.9  c-1.1-2.4-3.8-5.1-6.4-6.9c-1.8-1.2-5.1-3.7-4.8-5.3c0.2-1.4,2-2.2,5.7-3.6c3.2-1.2,15-10.9,25.1-22.7c6.5-7.6,12.8-17,20.1-27.5  c14-20.1,27.6-46.5,37.9-68.6c20.8-44.8,30.7-71.4,34.2-82.3c-1.5-1.5-2.7-2.9-4.1-3.8c-3.1-2-6-2.2-9-6.1  c-2.1-2.7-5.2-6.9-7.2-10.9c-0.5-1.1-1.2-2.4-1.4-4.3c-0.2-2.2,0-5.2,0.7-6.5c0.8-1.6,2.2-3.7,3.4-5c1-1.1,2.4-2.8,3.7-2.8  c1.4-0.1,2.3,1.2,3.8,3.3c0,0,0,0,0,0c0.8,0.6,2.4,1.5,3.8,0.8c1-0.5,2.2-2.3,2.3-5c0.4-6.6,2.6-13.2,7.5-21.3  c2.6-4.3,7.5-10.8,10.2-13.9c7.1-7.9,11.5-10,20.8-10.5c8.2-0.5,14.2-5.6,15.2-15.9c1.1-11.8,7-32.6,12.3-41.7  c5.6-9.7,14.9-17.1,26.9-26.6c11.1-8.8,19.9-14,26.1-23.5c4.8-7.2,5.4-11.9,5.4-24.3c0-6.2-2.5-11.3-6.5-15.5  c-3.9-4.3-9.5-6.6-12.5-9.4c6.9-1,12.6,0.4,16.9,3.6c5.7,4.3,9.4,10.7,9.4,17c0,11.6-3.5,17.4-7.1,23c-3.7,5.8-14.4,20.1-30.1,49  c-5.6,10.3-11.1,20-15.4,28c-7.2,13.4-12.5,23.3-16.6,31.5c-3.7,7.3-9.4,12.2-14.7,14.2c-4,1.5-8.1,0.9-12.6,0.4  c-4.7-0.5-6.5,2-9.2,4.9c-2.4,2.7-6.6,7.2-9.7,10.6c-6.5,7.3-8.9,20.2-9.2,24.8c-0.4,6.3,2.5,14.1,5.3,18.8c1.8,2.1,3.4,3.9,4.8,5.3  c2,1.9,4.6,3.3,5.2,5.6c0.2,0.9-0.4,3.7-1.2,5.9c-0.8,2.5-2.8,6.8-3.8,8.3c-1.5,2.3-3,2.6-4.5,2.7c-0.7,0-2.1-0.1-3.4-0.5  c-2.3,6.8-6.1,17.1-12.2,31.7c-8.3,19.8-16.9,36.6-24.1,52.4c-10.7,23.5-22,43.9-33.6,62.2c-13.1,20.7-30.6,34.4-35.2,38.2  c-1.9,1.5-0.2,4.9,2.7,4.6c0,0,0,0,0,0c0.4-0.1,0.8-0.2,1.2-0.3h0c2.5-0.6,5.5-1.1,9-1.1c7.5,0,13.3,3,19.2,7.8  c5.3,4.3,8.4,10.4,8.4,17.1c0,4-0.5,7.2-1.3,9.8c6-1.7,9.2-13.7,9.6-21.2c0.9-15.8-12.1-25.1-24.4-26.3c2-2.4,7.7-3.2,11.4-2.9  c3.3,0.3,10.2,2.8,14.2,7.4c4,4.5,5.8,9.6,5.8,18.3c0,9-3.7,23-5.4,27.1c-1.8,4.5-5.6,3.6-13.2,6c-3.7,1.2-8.9,4.9-16.1,8.5  c-8.3,4.1-16.4,10.1-21,14.8c-6.1,6.2-11.1,11.2-14.1,19.9h6.2c0.5-4.9,11.5-19.5,24.4-26.8c13.4-7.5,25-11.7,32-12.8  c5.6-0.9,7.7-0.8,8.1-4.3c0.2-1.9,3.4-20.9,7.5-45.8c4.2-25.9,12.5-57.3,20.1-83.7c14.8-51.2,45-138.8,77.2-198.8  c32.7-60.9,57.5-104.6,82.8-140.9c24.5-35.1,51-57.3,63-67.2c7.8-6.5,15.6-11.6,20.1-14.7c0.1-0.1,0.3-0.2,0.5-0.3  c0,0,0.1-0.1,0.1-0.1l3.2-1.9C961.6,44.6,960.7,42.1,958.9,42z M755.4,329.8c-3.1,5.2-5.7,6-8.5,6c-0.7,0-7.6-3.1-7.4-11.3  c0.3-8.2,4.5-13.5,10.8-18.7c5.3-4.4,14.5-7.1,16.7-4.9C769.3,303.2,762.5,317.9,755.4,329.8z M825.1,99.8  c-13.7,1.5-19.9,8.3-25.6,18.7c-0.8,2.5-1.3,6.1-0.6,7.2c0.9,1.3,2.9,2.8,7.5,2.7c6.7-0.2,12.5,0.7,19.5,5.4c6.1,4.1,8,10.5,8,17  c0,3.7-1,13.1-8.5,19.8c-8.5,7.5-14.3,8.9-19.8,9c-4.3,0.1-5.4,1.1-8.4,4.9c-1.9,2.4-6.1,8.1-7.8,10.6c-5.4,7.9-8.8,14-12,31  c-1.2,6.4-2.7,10.6-4,14.5c-2.3,6.5-4.7,11.5-7.6,14.9c-4,4.7-14.3,12-24.6,12c-9,0-9.2-0.4-14.9-0.4c-3.4,0-7.3,0.4-10.4,2.1  c-1.9,1-6.1,1.5-7.3,2c0.9-3.4,3.3-7.6,6.6-9.6c1.8-1.1,3.4-1.2,5.9-1.3c6.8-0.3,3.6,0.4,13.1,0.4c10.6,0,13.2-1.2,21.1-7.6  c6.9-5.5,11.1-14.2,15-29.5c2.3-8.8,4.2-14.2,6.8-19.8c2.4-5.1,5.2-9.9,9.1-15.3c5-6.9,9-11.9,12.6-14c2.6-1.5,6-1.6,9.8-1.6  c3.5,0,9.6-2.4,13.9-8.2c2.4-3.3,4.8-6.8,4.8-12.6c0-8.4-2.4-11.6-5.7-14.4c-5-4.1-8.4-4.6-12.3-4.7c-2,0-3.5,0.1-4.6,0.5  c-2.5,0.8-3.2,2.3-2.9,3.7c0.2,1.3,1.1,2.5,1.9,2.8c1.2-0.1,2.8-0.1,4.6-0.1c4.4,0,10.1,0.8,10.1,8.3c0,2.4-0.7,5.5-2.1,7.3  c-2.7,3.7-6.1,7.3-10.8,7.3c-2.9,0-6.1-1.2-7.8-2.5c-2.9-2.2-4.3-3.8-4.2-8.7c0.1-3.4-3.5-2.6-4.3-1.1c-0.5,0.8-1.3,1.9-1.6,4.3  c-0.3,2,0.9,4.7,0.8,8.4c-0.3,8.2-3.1,12.7-7,17.8c-4.8,6.1-8.3,7.4-9.7,7.7c-1.8,0.4-3.7,0.3-4.5,3c-0.4,1.3-0.1,5.1,0,11  c0.1,6.1-2.5,19-7.3,26.4c-6.3,9.8-17.3,10.4-22.2,9.5c-4.8-0.8-5.4-3-5.8-5.6c-0.2-1.5,4.1-7.5,8.1-15c0,0,13.7-23.4,22.4-38.7  c8.2-14.4,30.8-53.5,34.7-60.4c0.2-0.4,0.4-0.7,0.5-0.9c0.1-0.1,0.2-0.3,0.2-0.4c0.5-0.8,1-1.7,1.5-2.6  c9.5-16.5,11.6-21.8,21.5-22.4c17.1-0.9,29.8,9.3,29.4,12.5C843.7,103.7,833.8,98.8,825.1,99.8z M869.2,126.1  c0.8-9.4-0.5-16.8-4.7-23.8c-2.9-4.8-7.1-9.7-11.8-12.7c-7.3-4.7-13.4-7.2-29.7-7.1c0,0,8.5-3.6,17.2-3.3c9.8,0.5,21.7,4.2,29.6,9.5  c3.2,2.1,13.8,9.1,13.7,15.1C883.5,110.4,878.1,116.4,869.2,126.1z M404.6,605.8c-0.2-6.5-3.3-11.1-8-14.5c-5.2-3.8-12-6.1-19-6.2  c0.4-8.6-0.6-14.3-4.6-17.7c-2.6-2.2-6.3-3.6-11.1-3.6c-5.6,0.1-11,2.1-14.9,5.7c-4.6,4.1-8,9.6-8,16.4c0,7.8,4.8,13.3,8.3,16h0  c2.3,1,4.7,2.2,7.3,3.8c6.6,4.1,13.2,8.2,17.8,12.6c7.8,7.3,14,17.1,18.1,25.6h0l3.9,0.1c1-6.3-1.5-8.2-4-10.7  c-2.5-2.4-1.4-4.9,1.6-6.4c1.1-0.5,3.9-2.1,5.7-4.5c1.4-1.8,2.3-4.9,3.7-7.3C403.1,612,404.7,610.8,404.6,605.8z M388.2,620.9  c-1.2,1.8-3,2.2-4.7,1.4c-1.4-0.7-2.5-2.4-3.5-3.8c-2.4-3.2-4-6.7-5.8-10.8c-1.3-2.9-2.5-5.4-2.5-7.1c0-2.3,2.8-6.3,9.6-6.3  c9.3,0,12.6,6,12.6,13.3C393.8,613.1,391.1,616.5,388.2,620.9z M433.6,616.1c-0.2,0.2-0.5,0.4-0.7,0.7c0.1-0.1,0.3-0.2,0.4-0.3  c0.2-0.2,0.4-0.4,0.6-0.7C433.8,615.9,433.7,616,433.6,616.1z M412.7,577.8c0.3-0.1,0.6-0.2,0.9-0.2  C413.2,577.6,412.9,577.7,412.7,577.8z M412.7,577.8c-0.1,0-0.3,0.1-0.4,0.2C412.4,577.9,412.5,577.8,412.7,577.8z M455.5,541  c0,0-89-152.7-121.7-208.5c-32.7-55.9-93.2-158.3-117.2-201.4c-23.6-42.4-54.8-92.4-54.8-92.4c-67.5,0-120.8,3.3-120.8,3.3  c-1.9,0.1-2.7,1.7,0,4.2l3.2,2.5c0,0,0.1,0.1,0.1,0.1c0.2,0.1,0.3,0.2,0.5,0.3c4.5,3.1,12.4,8.7,20.4,15c12.8,10,38.4,32,62.5,67.4  c24.7,36.2,50.6,79.6,82.4,140.9c12.9,24.7,26.5,53,38.2,83c16.6,42.3,31.1,86,39.8,116.2c7.6,26.4,16,56.7,20.7,82.5  c4.4,24.2,6.3,43.9,6.5,45.8c0.4,3.5,3.3,4.4,8.8,5.3c7,1.1,18.1,5.7,31.2,12.7c13.1,7,24.2,20.9,24.8,25.8l4.4,0.1  c-2.3-8.2-7.8-15.9-16.1-22.7c-9-7.5-20.2-13.4-29.5-18.2c-1.3-0.7-4-2.4-5.1-2.7c-4.9-1.1-7.6,0.7-10.8-3.2  c-1.2-1.5-1.8-3.7-3.1-7.4c-1.4-4-3-12.8-3-21.9c0-17.5,10.5-23.3,16.3-24.2c1.8-0.3,6.6-1.2,9.1-0.9c1.9,0.3,4.5,1,6,2.9  c-7.3,0.3-13.2,2.6-18.6,8.2c-4.6,4.8-6.3,11.2-5.7,19.4c0.7,9,4.9,19.1,7.4,19.5c0.8,0.1,1.4,0.1,2,0c-0.7-2.5-1.2-5.8-1.2-10.3  c0-5.7,3.1-11.4,6.9-15.4c4-4.3,14.5-8.7,22.4-8.7c3.5,0,6.4,0.4,8.6,1.1c2,0.7,4.8-1.6,2-4.2c-1.5-1.4-4-3.5-8.3-7.2  c-7.3-6.2-16.5-16.2-27.1-32c-8.9-13.4-21.6-35.8-31.5-57.9c-7.5-16.7-16.3-34.8-25.2-56.1c-6-14.4-10.1-24.4-12.8-31  c-0.8,0.1-1.6,0.1-2.4,0.1c-2.4-0.1-4.7-0.5-5.5-1.6c-2-2.8-1.4-5.1-2.5-7.4c-1-2.1-2.3-3.8-2.3-5.8c0-1.9,1.2-3.5,3.3-5.4  c2-1.9,4.3-4.1,6.7-6.7c2.7-4.3,4.8-10.7,4.8-19.2c0-11.7-3.5-19.3-10-26.6c-2.8-3.1-5.9-6.4-8.3-8.9c-3.1-3.4-5.4-5.8-8-5.8  c-2.5,0-2.3,1.6-6.5,1.6c-5.3,0.1-10.2-2.4-13-4.5c-2.9-2.1-5.8-6.6-8.4-11.6c-1.3-2.6-5.6-9.1-8.1-14c-3.8-7.8-8.7-17.4-18.8-34.7  c-6.8-11.7-11.7-22.6-18-32.2c-9.1-13.8-16.1-24.8-18.3-28.2c-3.6-5.7-7-11.1-7-20.5c0-4.9,2.9-12,8-16.8c5.1-4.8,12.5-7.5,20.6-4.7  c-10.4,1.4-21.4,11.7-21.4,24.1c0,12.4,1,17.2,5.7,24.4c6.2,9.4,13.6,15,24.9,23.1c4.5,3.2,9.6,6.7,13.1,9.6  c6.6,5.5,11.6,11.2,15.3,17.5c5.3,9.1,9.1,20,11,40.7c0.5,5.4,2.6,8.3,4.4,11.3c2.9,5.1,5.8,5.6,8.2,5.8c1.8,0.1,3.6-0.8,6.4-0.6  c6.6,0.6,12.8,5.9,18.1,11.5c4.2,4.4,8.7,11.4,12.2,17.2c3.5,5.6,4.6,10,4.3,16.1c-0.3,5.2,0.7,7.2,2.2,7.8c0.9,0.3,1.9,0,2.5-0.3  c4.6-8.6,7.8-4.7,11.6,0.9c1.8,2.6,1.9,5,1,9.3c-0.5,2.4-2,7.8-2.9,8.9c-9.1,11.4-10.4,6.8-15.4,11.2c-1.8,1.6-1.5,4-1.6,5.3  c2.1,6,5.5,15.6,11.2,29.2c5.5,13.2,12.5,30.2,22.3,51.3c5.3,11.5,11.6,25.2,18.8,38c6.6,11.8,13.8,22.6,19.3,30.5  c7.3,10.6,14.2,20.6,20.5,28.3c6.7,8.1,21.5,20.7,24.2,21.8c3.4,1.4,5.7,2.5,5.7,3.8c0,2.6-3,3.2-4.8,5c-1.6,1.7-3.5,2.9-5.1,4.7  c-1.4,1.7-1.2,5.4-1.1,6.6c5.7-0.2,12.6,1.4,18.2,5.9c3.2,2.5,6.1,6.9,7.9,11c1.2,2.9,1.3,6.1,1.3,7.5c0,7.2-3.6,12.2-5.8,17.2  c-1.6,3.5-3.2,6.2-4.3,8.5c-1.2,2.5-2,4.4-2,4.4c0,1-0.2,1.5,0.4,5c0.2,1,0.7,2.3,1.3,3.4l5.5,0.2c0.3-2.1,0.8-4.6,1.7-6.8  c1.5-4.1,4.1-10.1,6.4-14c2.1-3.7,2.5-6.2,3.8-8.9c1-1.9,3.4-2,3.4-12.3c0-4.5-1.5-10.2-3.4-15.2c-1.1-2.7-3.8-4.3-6.8-6  c-0.4-0.3-0.7-0.6-0.9-0.9c-0.3-0.4-0.2-1-0.2-1.2c0-0.2,0.1-0.3,0.3-0.5c0.2-0.2,0.6-0.4,1.1-0.7c0.1,0,0.3-0.1,0.4-0.2  c0.3-0.1,0.6-0.2,0.9-0.2c0,0,0.1,0,0.1,0c6-1.7,10-5.6,13.8-10c4.9-5.7,8.1-13.4,8.1-24c0-8.3-1.2-13-3.6-19.5  c-5.1-13.3-12.1-25.3-16.8-31.4c-4.7-6.2-9.3-13.2-16.2-18.6c-3.4-2.7-10.3-9.3-13.6-12.6c-3.5-3.5-19.2-19.3-37.8-54.7  c-5.5-10.4-17.7-35.3-19.7-46.3c-1.5-8.4-3.4-24.6-1.8-30.3c0,0,21.1,35.3,43.6,73.9c24,41.3,49.9,86.2,57.6,98.7  c4.7,7.6,10.1,15.5,13.2,22.6c2.8,6.5,4,11.5,4,19.5c0,4.1-1.2,13-4,20.4c-2.1,5.6-5.8,11.2-9.7,14.3c-0.7,3.1-1.6,8.2-1.6,12.6  c0,6.1,1.1,12,1.1,12.6c0,3.2,0.3,4.5,2.5,5.8c0.4,0.3,0.9,0.7,1.4,0.9c0,0,0,0,0.1,0c0.3,0.1,0.5,0.3,0.7,0.4  c0.5,0.3,0.7,0.7,0.7,1c0,0.3-0.5,1.6-1.7,3.1c0,0,0,0,0,0c-0.2,0.2-0.4,0.4-0.6,0.7c-0.1,0.1-0.3,0.2-0.4,0.3  c-2.3,2.1-4.9,4.7-7.2,7.6c-2.3,3-4.2,6.4-5.2,8.5c-2.2,4.4-2.1,8.3-2.1,11.8l10,0.3c3-8.5,9.1-17.9,15.2-25.1  c7.1-8.3,14.1-13.7,14.1-13.7L455.5,541z M233,301.2c2.7-3.7,13.6-0.1,19,5.9c4.8,5.3,8.4,9,8.7,17.1c0.3,8.1-5.6,12.1-7.9,12.1  c-2.5,0-5.2-1.6-8-6.9c-2.4-4.5-4.8-9.5-7-13.8C234.2,308.3,231.9,302.8,233,301.2z M131.3,125.7c-8.3-7.6-15.3-17.3-14.8-22.9  c0.5-6.1,8.5-11,11.9-13.2c6.2-4,19.8-9.8,29.8-10.3c8.9-0.4,19.1,3.1,19.1,3.1c-17.5-0.5-23.3,3-30.8,7.7  C138.2,95.2,129.2,109,131.3,125.7z M276.9,267c-5.7,0-9.3-0.1-18.3-0.1c-10.4,0-19.1-5.7-23-10.5c-4.5-5.5-9.9-14-13.1-31  c-0.7-3.7-1.2-7-2-9.9c-2.9-10.4-6.6-16.1-10.9-22.3c-4.3-6.4-9.8-14-15.4-13.9c-5.4,0.2-8.2-0.6-12.1-2.9c-2.3-1.4-4.6-3.2-7.3-5.9  c-7.1-7.1-8.5-16.3-8.5-20.5c0-4.3,1.8-12.3,8.2-16.8c6.6-4.6,14.3-5.3,19.9-5.3c4.1,0,5.2-1.5,6-2.8c0.9-1.3-0.1-6.2-1.1-8.1  c-0.1-0.2-0.2-0.4-0.2-0.5c0,0,0,0,0,0c-5-9.1-10-14.5-22.3-16c-9.9-1.2-20,0.4-28.5,8c0.2-0.2,1.6-5.4,7.2-9.5  c4.6-3.4,12-6.6,22.4-6.5c9.8,0,12.7,3.4,23.1,22c2.4,4.3,4.2,7.8,5.5,10.7c7.7,13.7,24.2,42.6,31.4,54.2  c9.7,15.6,20.8,35.2,20.8,35.2c4.5,7.3,9.4,14.7,9.4,17.9c0,2.6-2.6,5.9-7.6,6.2c-4.9,0.3-13.8-0.4-20.1-9.7  c-2.3-3.3-6.6-19.5-7-26.1c-0.3-5.8,0.2-8.3-0.8-11s-3.5-3.5-4.9-3.5c-1.5,0-4.7-1.5-9-8c-3.6-5.4-6.6-7.7-6.6-15.6  c0-9.4,0.3-12.3-0.6-13.8c-0.9-1.5-4.7-1.8-4.9,1.6c-0.2,3.7-4.4,10-12.2,10c-2.3,0-5.4-2-8-4.8c-2.3-2.3-4.3-5.3-4.3-8.7  c0-6.6,4.2-9.5,7-9.5c1.5,0,4,0.3,5.3,0.3c1.9,0,2.6,0.4,2.6,0.4s0.8-0.1,1.4-0.5c0.2-0.5,0.4-0.9,0.4-1.4c0,0,0,0,0,0  c-0.1-0.4-0.3-0.9-0.8-1.5c-0.8-1-1.6-2.1-2.4-3c-1.4-0.6-3.4-1-5.8-1c-2.3,0-6.9,1.5-11,5.1c-3.1,2.8-6,6.8-6.2,12.9  c-0.3,12.7,11.9,21.7,21.2,21.8c2.4,0,5,0.2,6.9,1.4c4,2.3,7.7,7.1,13.3,14.8c5.6,7.7,9.2,14,12.2,22.1c1.4,3.9,2.8,8.1,3.9,13.3  c1.8,8.6,4.2,14.3,6.9,18.7c2.3,3.9,5,7.9,8.5,10.8c5.1,4.2,12.3,6.9,19.1,7c3.1,0,6.5-0.7,13.3-0.4c3.7,0.1,6.5,1.9,8.8,4.1  c2.3,2.1,4.5,4.7,4.8,6.6C283.6,270.1,282.5,267,276.9,267z M555.8,658.1c0-5.5-0.1-6.1,2.5-6.1c1.6,0,2.6,0.1,6.9,4.1  c4.9,4.5,12,7.9,24,12.5c12,4.6,26.3,6.4,34.8,6.4c5.5,0,5.8,3.1,5.8,5.2c0,3.5-0.1,11.5-0.1,13.9c0,2.4,0,4-4.8,4  c-4.8,0-10.5-0.1-16.8-0.1c-11.1,0-25.5-3-33.1-7.6c-8.2-5-19.1-12.6-19.1-19.8C556.1,666.9,555.8,658.1,555.8,658.1z M554.8,688.1  c0-5.8,1.7-6.8,5.5-3c1.6,1.6,5.4,4.9,10.8,8c7.1,4.2,17,8.3,28.5,8.7c6,0.2,13,0.8,17,1.1c8.7,0.7,10.4,1.4,10.4,6.1  c0,3.4,0.1,12.8,0.1,15.3c0,5.6-9,6.1-24.3,6.1c-12.3,0-24.8-0.8-33.8-6.1c-4.3-2.5-13.4-8.2-13.4-16.3  C555.5,704.9,554.8,688.1,554.8,688.1z M621.9,733.1c4.1-0.1,6.4,1.4,6.8,4.7c0.3,2.6,0.1,5.6-0.2,8c-0.6,4.9-6.1,6.8-38.8,6.8  c-10,0-21.6-1.5-27.6-6.2c-6-4.7-6.1-12.4-6.2-17s0.8-5.5,2.9-5.6c1.4-0.1,2.9,0.8,4.2,2.4c1.5,2,4.8,3.3,8.9,4.7  c8.2,2.9,22.7,4.3,31.3,4.5C612.9,735.7,615.9,733.2,621.9,733.1z M622.6,754.4c3.2-0.9,6-0.7,7.3,0.2c1.1,0.8,1.1,2.8,1.1,4.1  c0,2.6-2.1,3.9-3.6,4.5c-3.3,1.3-12.7,3.9-37.9,3.2c-9.2-0.2-15.4-0.6-19.5-1c-5.7-0.6-7.2-1.4-8.9-2.5c-3.7-2.4-4.4-4.1-4.7-7.3  c-0.1-1.4-0.2-2.4,0.1-3.2c0.5-1.4,2.6-1.6,3.6-1.6c3.4,0,4.9,1.6,6.4,2.6c2,1.3,15,2.9,29.8,2.7C605.6,755.9,620.7,755,622.6,754.4  z M602.1,647.7c10.3-0.4,22.3-1.5,24.4-1.5c3.8,0,4.5,0,4.5,6.1c0,2.9-0.2,5.9-0.8,7.1c-0.6,1.2-3.7,1.2-9.6,1.2  c-9.3,0-30.5-5.7-38.2-9.1c-2.7-1.2-2.8-4,0.7-4.3c1.1-0.1,3.8,0.3,5,0.4C588,647.6,593.5,648,602.1,647.7z M614.1,663.5  c2.8,0,7.8-0.6,10.4-0.1c2.4,0.5,1.9,1.4,1.9,2.5c0,1.9,0,3.9-9.7,4.3c-18.4,0.6-42.1-12.7-46.5-16c-1.5-1.2-3.2-2.9-3.8-3.8  c-1.2-2.1-0.3-2.7,1.1-2.9c3.3-0.6,6.1,3.5,11.5,6.2C600.2,664.3,607.9,663.5,614.1,663.5z M438.6,660.1c0,3.4-1.5,4.5-4.8,5.1  s-43.9,7.8-50.2,8.9c-6.3,1.1-8.9-0.9-8.9-5.3s0-6.2,0-12.8c0-6.5,0.9-8.1,5.3-8.3c4.4-0.2,31.7-0.7,44.1-0.4  c12.5,0.3,14.5,0.4,14.5,5.8C438.6,653.2,438.6,656.8,438.6,660.1z M430.2,670.2c3.1-0.7,6-1.7,8.1-1.9c1.5-0.1,2.6,0.3,3.3,0.8  c3.4,1.9,3.7,5.3,3.5,10.7c-0.1,2.9,0.2,4.7-1.1,6.6c-2.2,3.1-7.5,6.5-19.1,10.8c-4.5,1.7-9.1,3.1-13.6,3.9  c-10,1.8-19.3,1.4-26.3,1.4c-8,0-8.8-6.8-8.8-10.4c0-3.6-0.6-8.5,7.3-10.5C383.6,681.6,416.4,673.3,430.2,670.2z M402.2,704.9  c6.6-0.5,12.1-1.5,19.9-3.5c13.8-3.5,16.2-8,20.4-8.1c4.7-0.1,3.8,1.6,3.4,8.8c-0.2,3.5-2.2,6.1-5,7.6c-4.4,2.3-13.1,5-23.3,7.9  c-20.2,5.8-30.3,7.3-34.7,7.4c-4.5,0.1-5.1-3.4-5.2-4.9c-0.1-0.8,0.3-3.6,0.4-6.1c0.1-2.3-0.4-4.2-0.4-5.7c0-3.1,1.2-3.2,4.9-3.4  C390.4,704.7,397.2,705.3,402.2,704.9z M439.5,712.9c2.9-1.2,4.8-1.6,5.9-1c1.1,0.6,1.9,1.4,1.7,3.8c-0.3,5.1-0.8,7.7-1,9.6  c-0.2,2.3-3,3.6-9,5.8c-6.1,2.2-31.4,7.3-39.2,7.3c-6.5,0-14.4-1.5-15.1-4.8c-0.2-0.9-0.4-3.6,2-5c2.5-1.4,7.8-1.3,11.8-2.6  c2.9-0.9,8.8-2.2,15-3.9C421.5,719.5,433.6,715.4,439.5,712.9z M447.6,758.1c0,3.2-1.3,5.3-5,5.9c-3.7,0.6-14.3,1.5-21.9,1.5  c-7.6,0-22.9-0.1-27.4-0.5c-2.7-0.3-10-0.1-14.5-2.1c-2.9-1.3-4.2-4-4.2-7.2c0-8-0.1-14.1-0.1-17.7c0-2.2,0.8-2.9,2.7-3  c1.3,0,3.8,0.3,4.5,0.6c1.8,0.9,1.2,5.7,15.6,5.7c14.4,0,36.3-4.5,43.2-7.6c6.9-3.1,7.3,0.3,7.3,3.8  C447.7,737.6,447.6,754.9,447.6,758.1z M534.6,618.3c-1.2-6.8-5-9-8.9-9h-50.8c-5.5,0-7.4,1.5-8.7,8c-6.5,0-5.4,8.3-5.4,8.3  l78.4-0.1C539.2,620.3,537.7,618.3,534.6,618.3z M476.3,622.5c-2.3,0-3.6-2.2-3.6-4.5c0-2.3,1.1-4.1,3.6-4.1c3.1,0,4.6,2.2,4.6,4.3  C481,620.3,479.1,622.5,476.3,622.5z M493,621.9c-2.4,0-4.2-1.8-4.2-4c0-2.2,1.6-4,4.2-4c3.2,0,4.4,2.1,4.4,4.1  C497.4,620.8,495.4,621.9,493,621.9z M508.4,621.9c-3.1,0-4.1-2.1-4.1-4.1c0-2.7,1.9-3.8,4.1-3.8c2.2,0,4,1.6,4,3.8  C512.4,620,510.8,621.9,508.4,621.9z M523.4,622.5c-2.7,0-4.3-2.5-4.3-4.7c0-2.9,2-3.9,4.3-3.9s4.2,1.6,4.2,4  C527.6,620.2,525.9,622.5,523.4,622.5z"/>
</svg>